<svg xmlns="http://www.w3.org/2000/svg" xmlns:xlink="http://www.w3.org/1999/xlink" width="1366" zoomAndPan="magnify" viewBox="0 0 1024.5 576" height="768" preserveAspectRatio="xMidYMid meet" version="1.0"><defs><filter x="0%" y="0%" width="100%" height="100%" id="418b8c2447"><feColorMatrix values="0 0 0 0 1 0 0 0 0 1 0 0 0 0 1 0 0 0 1 0" color-interpolation-filters="sRGB"/></filter><clipPath id="088da319a8"><path d="M 0 0.140625 L 1024 0.140625 L 1024 575.859375 L 0 575.859375 Z M 0 0.140625 " clip-rule="nonzero"/></clipPath><clipPath id="4000ca5443"><path d="M 0 0.140625 L 438 0.140625 L 438 575.859375 L 0 575.859375 Z M 0 0.140625 " clip-rule="nonzero"/></clipPath><mask id="92c10a7ff0"><g filter="url(#418b8c2447)"><rect x="-102.45" width="1229.4" fill="#000000" y="-57.6" height="691.2" fill-opacity="0.0667"/></g></mask><clipPath id="c414b66cb4"><path d="M 0 12 L 361 12 L 361 575.859375 L 0 575.859375 Z M 0 12 " clip-rule="nonzero"/></clipPath><clipPath id="3915f1d9b4"><path d="M 447.132812 250.128906 L 182.679688 794.546875 L -373.207031 524.523438 L -108.753906 -19.894531 Z M 447.132812 250.128906 " clip-rule="nonzero"/></clipPath><clipPath id="5ebac86b08"><path d="M 447.132812 250.128906 L 182.679688 794.546875 L -373.207031 524.523438 L -108.753906 -19.894531 Z M 447.132812 250.128906 " clip-rule="nonzero"/></clipPath><clipPath id="4c8d3bbf53"><rect x="0" width="438" y="0" height="576"/></clipPath><clipPath id="f78a9aac58"><path d="M 0 242 L 611 242 L 611 575.859375 L 0 575.859375 Z M 0 242 " clip-rule="nonzero"/></clipPath><mask id="25185c9ab2"><g filter="url(#418b8c2447)"><rect x="-102.45" width="1229.4" fill="#000000" y="-57.6" height="691.2" fill-opacity="0.0275"/></g></mask><clipPath id="d62c38d020"><path d="M 32 27 L 501 27 L 501 333.859375 L 32 333.859375 Z M 32 27 " clip-rule="nonzero"/></clipPath><clipPath id="a859cc1cb9"><path d="M 615.175781 417.214844 L 203.417969 671.128906 L -55.609375 251.074219 L 356.144531 -2.839844 Z M 615.175781 417.214844 " clip-rule="nonzero"/></clipPath><clipPath id="bfd64b7e26"><path d="M 615.175781 417.214844 L 203.417969 671.128906 L -55.609375 251.074219 L 356.144531 -2.839844 Z M 615.175781 417.214844 " clip-rule="nonzero"/></clipPath><clipPath id="cdff0671d0"><rect x="0" width="611" y="0" height="334"/></clipPath></defs><g clip-path="url(#088da319a8)"><path fill="#ffffff" d="M 0 0.140625 L 1024.5 0.140625 L 1024.5 583.640625 L 0 583.640625 Z M 0 0.140625 " fill-opacity="1" fill-rule="nonzero"/><path fill="#ffffff" d="M 0 0.140625 L 1024.5 0.140625 L 1024.5 576.140625 L 0 576.140625 Z M 0 0.140625 " fill-opacity="1" fill-rule="nonzero"/><path fill="#1e1e1e" d="M 0 0.140625 L 1024.5 0.140625 L 1024.5 576.140625 L 0 576.140625 Z M 0 0.140625 " fill-opacity="1" fill-rule="nonzero"/></g><g clip-path="url(#4000ca5443)"><g mask="url(#92c10a7ff0)"><g transform="matrix(1, 0, 0, 1, 0, 0.000000000000055289)"><g clip-path="url(#4c8d3bbf53)"><g clip-path="url(#c414b66cb4)"><g clip-path="url(#3915f1d9b4)"><g clip-path="url(#5ebac86b08)"><path fill="#ffffff" d="M -22.253906 23.96875 C 24.554688 55.503906 69.214844 89.832031 111.71875 126.960938 C 187.769531 194.070312 260.160156 264.917969 328.898438 339.496094 C 370.714844 384.660156 371.15625 406.34375 329.601562 452.472656 C 290.171875 496.242188 237.039062 519.097656 185.457031 543.273438 C 127.261719 569.867188 67.214844 591.277344 5.3125 607.492188 C -6.121094 610.679688 -17.6875 613.28125 -29.386719 615.296875 C -41.082031 617.3125 -52.855469 618.730469 -64.695312 619.554688 C -76.539062 620.378906 -88.394531 620.601562 -100.257812 620.222656 C -112.125 619.84375 -123.941406 618.871094 -135.707031 617.292969 C -195.117188 609.210938 -219.066406 584.339844 -221.664062 523.9375 C -224.210938 464.902344 -214.472656 406.589844 -205.804688 348.441406 C -192.058594 256.191406 -165.332031 166.796875 -142.121094 76.726562 C -127.21875 19.113281 -78.878906 -2.863281 -22.253906 23.96875 Z M -22.253906 23.96875 " fill-opacity="1" fill-rule="nonzero"/></g></g></g></g></g></g></g><g clip-path="url(#f78a9aac58)"><g mask="url(#25185c9ab2)"><g transform="matrix(1, 0, 0, 1, 0, 242)"><g clip-path="url(#cdff0671d0)"><g clip-path="url(#d62c38d020)"><g clip-path="url(#a859cc1cb9)"><g clip-path="url(#bfd64b7e26)"><path fill="#ffffff" d="M 395.65625 63.769531 C 413.699219 105.074219 429.089844 147.339844 441.828125 190.574219 C 464.328125 268.382812 482.761719 347.148438 497.132812 426.863281 C 505.960938 475.21875 496.960938 490.03125 449.160156 503.347656 C 403.808594 515.984375 358.183594 508.652344 313.035156 502.871094 C 262.394531 495.894531 212.726562 484.625 164.035156 469.058594 C 145.835938 463.554688 128.378906 456.277344 111.660156 447.222656 C 94.941406 438.171875 79.304688 427.53125 64.746094 415.300781 C 28.15625 384.417969 22.671875 357.394531 46.820312 315.550781 C 70.417969 274.648438 101.988281 239.496094 132.765625 203.996094 C 181.589844 147.671875 237.941406 98.835938 292.210938 48.03125 C 326.964844 15.5625 368.984375 21.4375 395.65625 63.769531 Z M 395.65625 63.769531 " fill-opacity="1" fill-rule="nonzero"/></g></g></g></g></g></g></g></svg>