<svg id="visual" viewBox="0 0 900 600" width="900" height="600" xmlns="http://www.w3.org/2000/svg" xmlns:xlink="http://www.w3.org/1999/xlink" version="1.1"><path d="M0 403L15 408.3C30 413.7 60 424.3 90 423.7C120 423 150 411 180 401.2C210 391.3 240 383.7 270 382.7C300 381.7 330 387.3 360 396.7C390 406 420 419 450 419.3C480 419.7 510 407.3 540 400.3C570 393.3 600 391.7 630 392.3C660 393 690 396 720 398.7C750 401.3 780 403.7 810 401.5C840 399.3 870 392.7 885 389.3L900 386L900 0L885 0C870 0 840 0 810 0C780 0 750 0 720 0C690 0 660 0 630 0C600 0 570 0 540 0C510 0 480 0 450 0C420 0 390 0 360 0C330 0 300 0 270 0C240 0 210 0 180 0C150 0 120 0 90 0C60 0 30 0 15 0L0 0Z" fill="#ffffff"></path><path d="M0 360L15 357.3C30 354.7 60 349.3 90 343.7C120 338 150 332 180 330.2C210 328.3 240 330.7 270 330C300 329.3 330 325.7 360 323.8C390 322 420 322 450 332.2C480 342.3 510 362.7 540 372.7C570 382.7 600 382.3 630 379C660 375.7 690 369.3 720 368.5C750 367.7 780 372.3 810 371.5C840 370.7 870 364.3 885 361.2L900 358L900 0L885 0C870 0 840 0 810 0C780 0 750 0 720 0C690 0 660 0 630 0C600 0 570 0 540 0C510 0 480 0 450 0C420 0 390 0 360 0C330 0 300 0 270 0C240 0 210 0 180 0C150 0 120 0 90 0C60 0 30 0 15 0L0 0Z" fill="#d0d0d0"></path><path d="M0 313L15 308C30 303 60 293 90 294.7C120 296.3 150 309.7 180 311.5C210 313.3 240 303.7 270 297.7C300 291.7 330 289.3 360 286C390 282.7 420 278.3 450 278.2C480 278 510 282 540 286C570 290 600 294 630 294C660 294 690 290 720 290.7C750 291.3 780 296.7 810 298.7C840 300.7 870 299.3 885 298.7L900 298L900 0L885 0C870 0 840 0 810 0C780 0 750 0 720 0C690 0 660 0 630 0C600 0 570 0 540 0C510 0 480 0 450 0C420 0 390 0 360 0C330 0 300 0 270 0C240 0 210 0 180 0C150 0 120 0 90 0C60 0 30 0 15 0L0 0Z" fill="#a2a2a2"></path><path d="M0 261L15 261.7C30 262.3 60 263.7 90 264.2C120 264.7 150 264.3 180 259.2C210 254 240 244 270 239.7C300 235.3 330 236.7 360 236.8C390 237 420 236 450 240.3C480 244.7 510 254.3 540 253.3C570 252.3 600 240.7 630 233.8C660 227 690 225 720 231.2C750 237.3 780 251.7 810 253.5C840 255.3 870 244.7 885 239.3L900 234L900 0L885 0C870 0 840 0 810 0C780 0 750 0 720 0C690 0 660 0 630 0C600 0 570 0 540 0C510 0 480 0 450 0C420 0 390 0 360 0C330 0 300 0 270 0C240 0 210 0 180 0C150 0 120 0 90 0C60 0 30 0 15 0L0 0Z" fill="#777777"></path><path d="M0 172L15 176.5C30 181 60 190 90 190.3C120 190.7 150 182.3 180 179.8C210 177.3 240 180.7 270 182.5C300 184.3 330 184.7 360 187.7C390 190.7 420 196.3 450 195C480 193.7 510 185.3 540 182.5C570 179.7 600 182.3 630 186.3C660 190.3 690 195.7 720 198.3C750 201 780 201 810 196.8C840 192.7 870 184.3 885 180.2L900 176L900 0L885 0C870 0 840 0 810 0C780 0 750 0 720 0C690 0 660 0 630 0C600 0 570 0 540 0C510 0 480 0 450 0C420 0 390 0 360 0C330 0 300 0 270 0C240 0 210 0 180 0C150 0 120 0 90 0C60 0 30 0 15 0L0 0Z" fill="#4e4e4e"></path><path d="M0 115L15 120.2C30 125.3 60 135.7 90 137.2C120 138.7 150 131.3 180 128C210 124.7 240 125.3 270 127.7C300 130 330 134 360 135.5C390 137 420 136 450 132.2C480 128.3 510 121.7 540 121.2C570 120.7 600 126.3 630 127C660 127.7 690 123.3 720 123.7C750 124 780 129 810 132C840 135 870 136 885 136.5L900 137L900 0L885 0C870 0 840 0 810 0C780 0 750 0 720 0C690 0 660 0 630 0C600 0 570 0 540 0C510 0 480 0 450 0C420 0 390 0 360 0C330 0 300 0 270 0C240 0 210 0 180 0C150 0 120 0 90 0C60 0 30 0 15 0L0 0Z" fill="#292929"></path><path d="M0 66L15 66.8C30 67.7 60 69.3 90 68.5C120 67.7 150 64.3 180 63.2C210 62 240 63 270 66.2C300 69.3 330 74.7 360 77.2C390 79.7 420 79.3 450 79.7C480 80 510 81 540 80C570 79 600 76 630 77C660 78 690 83 720 85.3C750 87.7 780 87.3 810 84C840 80.7 870 74.3 885 71.2L900 68L900 0L885 0C870 0 840 0 810 0C780 0 750 0 720 0C690 0 660 0 630 0C600 0 570 0 540 0C510 0 480 0 450 0C420 0 390 0 360 0C330 0 300 0 270 0C240 0 210 0 180 0C150 0 120 0 90 0C60 0 30 0 15 0L0 0Z" fill="#000000"></path></svg>